<svg width="46" height="46" viewBox="0 0 46 46" fill="none" xmlns="http://www.w3.org/2000/svg">
<g filter="url(#filter0_d_8_119)">
<path d="M8 19C8 15.0218 9.58035 11.2064 12.3934 8.3934C15.2064 5.58035 19.0218 4 23 4C24.9698 4 26.9204 4.38799 28.7403 5.14181C30.5601 5.89563 32.2137 7.00052 33.6066 8.3934C34.9995 9.78628 36.1044 11.4399 36.8582 13.2597C37.612 15.0796 38 17.0302 38 19C38 22.9782 36.4196 26.7936 33.6066 29.6066C30.7936 32.4196 26.9782 34 23 34C21.0302 34 19.0796 33.612 17.2597 32.8582C15.4399 32.1044 13.7863 30.9995 12.3934 29.6066C9.58035 26.7936 8 22.9782 8 19ZM32 17.5H20L25.25 12.25L23.12 10.12L14.24 19L23.12 27.88L25.25 25.75L20 20.5H32V17.5Z" fill="white"/>
</g>
<defs>
<filter id="filter0_d_8_119" x="0" y="0" width="46" height="46" filterUnits="userSpaceOnUse" color-interpolation-filters="sRGB">
<feFlood flood-opacity="0" result="BackgroundImageFix"/>
<feColorMatrix in="SourceAlpha" type="matrix" values="0 0 0 0 0 0 0 0 0 0 0 0 0 0 0 0 0 0 127 0" result="hardAlpha"/>
<feOffset dy="4"/>
<feGaussianBlur stdDeviation="4"/>
<feComposite in2="hardAlpha" operator="out"/>
<feColorMatrix type="matrix" values="0 0 0 0 0 0 0 0 0 0 0 0 0 0 0 0 0 0 0.25 0"/>
<feBlend mode="normal" in2="BackgroundImageFix" result="effect1_dropShadow_8_119"/>
<feBlend mode="normal" in="SourceGraphic" in2="effect1_dropShadow_8_119" result="shape"/>
</filter>
</defs>
</svg>
