<svg width="52" height="56" viewBox="0 0 52 56" fill="none" xmlns="http://www.w3.org/2000/svg">
<path d="M48.4547 5.14975L48.5943 5.59965L50.1352 11.0041C50.2748 11.494 50.2335 12.0183 50.019 12.4799C49.8045 12.9415 49.4312 13.3093 48.9683 13.5151L48.7003 13.6135L18.755 22.2601H49.9091C50.4154 22.261 50.9042 22.4467 51.2851 22.7827C51.6659 23.1187 51.913 23.5824 51.9805 24.0878L52 24.369V48.2673C52.0001 50.2364 51.2544 52.1314 49.915 53.5657C48.5756 55.0001 46.7434 55.8656 44.7921 55.9859L44.3231 56H9.43114C7.47623 56.0001 5.59493 55.249 4.17096 53.8998C2.747 52.5507 1.88767 50.7052 1.76824 48.7397L1.75428 48.2673V24.6699L0.297076 19.5494C-0.241479 17.6565 -0.0428178 15.628 0.852538 13.8775C1.74789 12.1271 3.27249 10.7866 5.11535 10.1296L5.562 9.98339L39.1001 0.299238C40.9793 -0.243236 42.9933 -0.0431297 44.7311 0.858739C46.4688 1.76061 47.7996 3.2963 48.4519 5.15256L48.4547 5.14975ZM10.8911 12.8318L6.71493 14.041C5.88549 14.2807 5.17365 14.8215 4.71687 15.5589C4.26009 16.2963 4.09076 17.178 4.24158 18.0338L4.32533 18.3853L5.28564 21.7624L6.10915 21.5234L10.8911 12.8347V12.8318ZM24.1679 8.99923L16.5832 11.1897L11.7984 19.8784L19.3859 17.6908L24.1679 8.99923V8.99923ZM37.4503 5.161L29.8627 7.35427L25.0808 16.043L32.6627 13.8554L37.4503 5.161V5.161ZM42.6063 4.50583L38.3603 12.2104L45.5319 10.138L44.5716 6.76378C44.4303 6.2644 44.1807 5.80283 43.8408 5.41237C43.501 5.02191 43.0793 4.71228 42.6063 4.50583V4.50583Z" fill="#0F4C75"/>
</svg>
